<?xml version="1.0" encoding="utf-8"?>
<svg viewBox="7.8448 15.8968 522.4543 513.4763" xmlns="http://www.w3.org/2000/svg">
  <path style="stroke: none;" d="M169 360L239.399 181L259 131L270 108C273.235 126.203 283.999 144.711 290.576 162C306.765 204.559 324.09 246.72 341 289C357.416 330.044 374.18 370.951 390.6 412C406.609 452.02 419.255 496.98 459 519.572C474.533 528.401 497.042 532.225 514 525.536C524.499 521.394 533.346 510.953 529.297 499C523.153 480.863 502.776 495.04 490 492.331C472.005 488.515 457.903 473.633 449.312 458C431.451 425.5 419.757 388.397 406 354C376.594 280.477 349.115 205.915 318.284 133C305.759 103.378 294.967 72.9379 283.203 43C280.773 36.817 276.754 15.1493 268.039 15.9167C259.433 16.6746 256.12 36.6092 253.547 43C242 71.6823 232.986 101.813 220.23 130C183.529 211.099 156.776 297.012 121.85 379C108.358 410.674 98.8562 455.291 71.9961 478.572C63.1689 486.223 52.1625 493.181 40 492.946C32.2656 492.797 23.3836 486.728 16.0039 490.457C1.94105 497.562 8.12553 516.928 19.0008 523.521C42.086 537.516 77.8206 524.059 96 507.826C119.676 486.686 129.381 455.447 141.139 427C145.217 417.134 149.282 396.183 158.213 389.857C167.803 383.065 187.544 382.12 199 379.576C226.277 373.518 253.332 366.613 280 358.435C296.777 353.291 315.134 347.028 326.671 333C341.252 315.269 329.269 290.417 312 279.927C306.644 276.673 290.439 268.723 284.743 274.603C280.86 278.612 285.251 282.625 289.005 283.956C299.307 287.609 317.42 293.017 310.583 308C304.309 321.749 285.343 328.59 272 332.999C238.174 344.177 203.214 350.363 169 360M214 81.5116C200.663 83.1795 185.354 92.4287 174 99.2006C138.159 120.578 110.387 151.528 92.2585 189C84.3081 205.433 79.6485 223.118 76.4244 241C75.576 245.705 72.5981 257.869 80.9722 257.623C87.7221 257.426 87.5761 246.695 88.4244 242C91.6863 223.947 97.9435 206.547 105.781 190C121.506 156.8 149.165 129.622 180 110.425C188.263 105.281 197.037 101.183 206 97.4244C210.222 95.6539 216.206 94.592 219.566 91.3511C224.438 86.6523 219.853 80.7796 214 81.5116M321.059 82.0424C316.999 83.1003 316.458 87.8227 318.604 90.892C321.929 95.6469 329.925 97.4067 335 99.6944C379.164 119.604 416.923 155.764 435.397 201C441.353 215.586 446.135 230.444 448.753 246C449.5 250.437 450.461 258.82 456.96 257.508C463.985 256.089 461.472 246.835 460.725 242C458.357 226.658 453.85 211.25 447.719 197C429.965 155.733 400.023 123.122 362 99.5756C353.053 94.0351 343.667 89.7117 334 85.5787C330.329 84.0092 325.211 80.9604 321.059 82.0424M265.514 156.032C260.743 159.354 261.95 178.873 263.434 183.956C264.36 187.129 267.56 189.607 270.867 187.928C276.559 185.04 275.252 164.582 273.566 159.109C272.575 155.89 268.502 153.951 265.514 156.032M266.228 219.047C262.772 220.982 263.019 225.612 263.001 229C262.949 238.738 261.844 249.352 263.189 258.999C263.715 262.773 266.439 267.298 270.867 264.953C274.037 263.275 274.898 259.28 274.921 256C274.987 246.343 275.529 234.529 274.347 225.001C273.878 221.219 270.473 216.671 266.228 219.047M35.2284 272.742C30.8348 274.796 31.6933 281.207 36.1088 282.566C43.3187 284.787 53.4809 283 61 283L113 283C119.254 283 133.713 285.659 138.678 281.397C149.177 272.384 125.524 272 122 272L61 272C53.8425 272 41.777 269.682 35.2284 272.742M224.059 272.742C220.078 274.408 218.56 280.392 223.148 282.397C228.115 284.567 247.154 284.879 251.757 281.972C255.836 279.396 253.915 273.865 249.892 272.573C244.08 270.705 229.71 270.377 224.059 272.742M400.109 272.742C395.098 274.901 395.98 281.327 401.044 282.682C408.17 284.589 417.636 283 425 283L477 283C483.071 283 496.846 285.545 501.678 281.397C512.178 272.384 488.524 272 485 272L426 272C418.614 272 406.955 269.793 400.109 272.742M264 333L265 333C267.102 328.836 269.517 328.077 274 329C274 319.707 275.74 309.106 274.656 300.004C274.204 296.214 271.511 292.118 267.108 293.647C262.848 295.127 263.02 300.33 263.001 304C262.949 313.735 263.8 323.323 264 333M79.1327 299.851C72.6523 301.879 75.8778 312.483 76.8843 317C80.1314 331.574 84.0586 345.387 90.3086 359C92.1206 362.947 95.1209 371.713 100.96 370.124C107.92 368.23 104.411 360.314 102.573 356C96.369 341.446 90.9116 326.637 88.0833 311C87.3107 306.729 85.5793 297.834 79.1327 299.851M454.108 299.786C448.855 301.683 448.728 310.419 447.916 315C445.086 330.968 437.091 344.659 432.789 360C431.738 363.744 432.021 371.53 437.989 370.11C443.182 368.874 445.705 361.3 447.576 357C453.452 343.493 457.677 329.472 460.389 315C461.251 310.399 463.733 296.311 454.108 299.786M273 369L266 378L264 372L263 372C263 377.521 260.768 389.418 265.434 393.393C268.349 395.876 272.489 394.39 273.566 390.891C275.223 385.512 275.154 374.133 273 369M267.133 423.851C261.236 425.7 263 436.393 263 441L263 495C263 499.61 261.453 513.765 269.945 511.878C276.04 510.524 274 499.486 274 495L274 440C274 435.599 275.698 421.166 267.133 423.851M163.232 431.032C153.448 436.899 171.067 446.045 175 448.281C191.907 457.892 209.963 465.371 229 469.576C234.16 470.715 244.074 474.347 248.678 470.397C254.053 465.786 247.186 461.431 242.999 460.429C222.668 455.564 203.451 450.432 185 440.138C179.951 437.321 169.34 427.371 163.232 431.032M367 430.706C356.293 434.131 346.529 443.066 336 447.573C321.828 453.638 305.915 455.174 292.044 461.144C288.099 462.842 284.933 469.007 290.228 471.397C296.115 474.053 306.134 470.091 312 468.625C328.496 464.501 344.366 458.528 359 449.799C363.961 446.84 371.082 443.828 374.393 438.907C378.193 433.259 372.503 428.946 367 430.706z" transform="matrix(0.9999999999999999, 0, 0, 0.9999999999999999, -7.105427357601002e-15, -7.105427357601002e-15)"/>
</svg>